<svg width="3795" height="3795" viewBox="0 0 3795 3795" fill="none" xmlns="http://www.w3.org/2000/svg">
<path opacity="0.3" d="M147.23 2019.3L1721.35 3643.13M1797.58 3569.23L223.465 1945.4M307.071 1864.36L1872.39 3496.72M1961.84 3410.01L387.721 1786.18M468.372 1707.99L2042.49 3331.82" stroke="white" stroke-width="1.4674"/>
<path opacity="0.3" d="M468.371 1708L2042.49 3331.83M2118.67 3257.98L544.555 1634.15M628.106 1553.15L2193.43 3185.51M2282.82 3098.85L708.704 1475.02M789.302 1396.89L2363.42 3020.72" stroke="white" stroke-width="1.4674"/>
<path opacity="0.2" d="M789.301 1396.89L2363.42 3020.72M2439.65 2946.82L865.535 1322.99M949.141 1241.94L2514.46 2874.3M2603.91 2787.59L1029.79 1163.76M1110.44 1085.58L2684.56 2709.41" stroke="white" stroke-width="1.4674"/>
<path opacity="0.3" d="M1110.44 1085.58L2684.56 2709.41M2760.79 2635.51L1186.68 1011.68M1270.28 930.631L2835.6 2562.99M2925.05 2476.28L1350.93 852.45M1431.58 774.268L3005.7 2398.1" stroke="white" stroke-width="1.4674"/>
<path opacity="0.2" d="M1431.59 774.273L3005.7 2398.1M3081.89 2324.25L1507.77 700.422M1591.32 619.428L3156.64 2251.78M3246.03 2165.13L1671.92 541.298M1752.52 463.168L3326.63 2087" stroke="white" stroke-width="1.4674"/>
<path opacity="0.3" d="M1752.52 463.164L3326.63 2086.99M3402.87 2013.09L1828.75 389.264M1912.36 308.217L3477.67 1940.58M3567.12 1853.86L1993.01 230.036M2073.66 151.854L3647.77 1775.68" stroke="white" stroke-width="1.4674"/>
<path opacity="0.1" d="M1887.4 3775.64L3794.44 1926.98M3720.54 1850.75L1813.5 3699.41M1732.45 3615.8L3648.02 1775.94M3561.31 1686.49L1654.27 3535.15M1576.09 3454.5L3483.13 1605.84" stroke="white" stroke-width="1.4674"/>
<path opacity="0.2" d="M1576.09 3454.5L3483.13 1605.84M3409.27 1529.66L1502.23 3378.32M1421.24 3294.76L3336.81 1454.9M3250.15 1365.51L1343.11 3214.17M1264.98 3133.57L3172.02 1284.91" stroke="white" stroke-width="1.4674"/>
<path opacity="0.2" d="M1264.98 3133.57L3172.02 1284.91M3098.12 1208.68L1191.08 3057.34M1110.04 2973.73L3025.61 1133.87M2938.9 1044.42L1031.86 2893.08M953.675 2812.43L2860.72 963.772" stroke="white" stroke-width="1.4674"/>
<path opacity="0.2" d="M953.672 2812.43L2860.71 963.773M2786.81 887.539L879.772 2736.2M798.725 2652.59L2714.3 812.732M2627.58 723.282L720.544 2571.94M642.362 2491.29L2549.4 642.632" stroke="white" stroke-width="1.4674"/>
<path opacity="0.2" d="M642.363 2491.29L2549.4 642.632M2475.55 566.448L568.512 2415.1M487.518 2331.55L2403.08 491.69M2316.43 402.299L409.388 2250.96M331.258 2170.36L2238.3 321.702" stroke="white" stroke-width="1.4674"/>
<path opacity="0.2" d="M331.258 2170.36L2238.3 321.703M2164.4 245.469L257.358 2094.13M176.311 2010.52L2091.88 170.661M2005.17 81.2118L98.1296 1929.87M19.9481 1849.22L1926.99 0.561282" stroke="white" stroke-width="1.4674"/>
<path d="M2233.13 1860.2V1785.62H2158.54V1711.03C2158.48 1691.27 2150.61 1672.33 2136.63 1658.36C2122.66 1644.39 2103.72 1636.51 2083.96 1636.45H2009.38V1561.87H1934.79V1636.45H1860.21V1561.87H1785.63V1636.45H1711.04C1691.28 1636.51 1672.34 1644.39 1658.37 1658.36C1644.39 1672.33 1636.52 1691.27 1636.46 1711.03V1785.62H1561.88V1860.2H1636.46V1934.78H1561.88V2009.37H1636.46V2083.95C1636.52 2103.71 1644.39 2122.65 1658.37 2136.62C1672.34 2150.6 1691.28 2158.47 1711.04 2158.53H1785.63V2233.12H1860.21V2158.53H1934.79V2233.12H2009.38V2158.53H2083.96C2103.72 2158.47 2122.66 2150.6 2136.63 2136.62C2150.61 2122.65 2158.48 2103.71 2158.54 2083.95V2009.37H2233.13V1934.78H2158.54V1860.2H2233.13ZM2083.96 2083.95H1711.04V1711.03H2083.96V2083.95Z" fill="white"/>
<path d="M1873.75 1748.31H1823.59L1748.63 2046.65H1786.93L1804.23 1976.72H1890.6L1907.46 2046.65H1947.06L1873.75 1748.31ZM1809.27 1946.85L1847.23 1783.74H1848.95L1885.61 1946.85H1809.27ZM1981.26 1748.31H2018.55V2046.65H1981.26V1748.31Z" fill="white"/>
</svg>
