<svg width="2685" height="2686" viewBox="0 0 2685 2686" fill="none" xmlns="http://www.w3.org/2000/svg">
<path opacity="0.3" d="M1 212.219V2473.78M107.174 2473.78V212.219M223.615 212.219L211.361 2473.78M335.94 2473.78V212.219M448.264 212.219V2473.78" stroke="white" stroke-width="1.4674"/>
<path opacity="0.3" d="M448.266 212.219V2473.78M554.37 2473.78V212.219M670.735 212.219L658.488 2473.78M782.986 2473.78V212.219M895.237 212.219V2473.78" stroke="white" stroke-width="1.4674"/>
<path opacity="0.3" d="M895.234 212.219V2473.78M1001.41 2473.78V212.219M1117.85 212.219L1105.59 2473.78M1230.17 2473.78V212.219M1342.5 212.219V2473.78" stroke="white" stroke-width="1.4674"/>
<path opacity="0.3" d="M1342.5 212.219V2473.78M1448.67 2473.78V212.219M1565.11 212.219L1552.86 2473.78M1677.44 2473.78V212.219M1789.76 212.219V2473.78" stroke="white" stroke-width="1.4674"/>
<path opacity="0.3" d="M1789.77 212.219V2473.78M1895.87 2473.78V212.219M2012.23 212.219L1999.99 2473.78M2124.49 2473.78V212.219M2236.74 212.219V2473.78" stroke="white" stroke-width="1.4674"/>
<path opacity="0.3" d="M2236.73 212.219V2473.78M2342.91 2473.78V212.219M2459.35 212.219L2447.09 2473.78M2571.67 2473.78V212.219M2684 212.219V2473.78" stroke="white" stroke-width="1.4674"/>
<path opacity="0.1" d="M28 2684.5H2684M2684 2578.33H28M28 2461.89L2684 2474.14M2684 2349.56H28M28 2237.24H2684" stroke="white" stroke-width="1.4674"/>
<path opacity="0.3" d="M28 2237.23H2684M2684 2131.13H28M28 2014.77L2684 2027.01M2684 1902.51H28M28 1790.26H2684" stroke="white" stroke-width="1.4674"/>
<path opacity="0.3" d="M28 1790.27L2684 1790.27M2684 1684.09L28 1684.09M28 1567.65L2684 1579.91M2684 1455.33H28M28 1343H2684" stroke="white" stroke-width="1.4674"/>
<path opacity="0.3" d="M28 1343L2684 1343M2684 1236.83L28 1236.83M28 1120.39L2684 1132.64M2684 1008.06L28 1008.06M28 895.736L2684 895.736" stroke="white" stroke-width="1.4674"/>
<path opacity="0.3" d="M28 895.734L2684 895.734M2684 789.63L28 789.63M28 673.265L2684 685.512M2684 561.014L28 561.014M28 448.763L2684 448.763" stroke="white" stroke-width="1.4674"/>
<path opacity="0.1" d="M28 448.766L2684 448.766M2684 342.592L28 342.592M28 226.151L2684 238.405M2684 113.826L28 113.826M28 1.50114L2684 1.50114" stroke="white" stroke-width="1.4674"/>
<g clip-path="url(#clip0_558_48)">
<path d="M1342.03 1815.29C1422.04 1792.61 1468.29 1709.76 1445.6 1629.75L1404.61 1485.2L1260.06 1526.18C1180.05 1548.87 1133.81 1631.72 1156.49 1711.73C1179.18 1791.74 1262.03 1837.98 1342.03 1815.29Z" fill="#0ACF83"/>
<path d="M1074.52 1422.62C1051.83 1342.61 1098.07 1259.76 1178.08 1237.07L1322.64 1196.09L1404.61 1485.19L1260.06 1526.18C1180.05 1548.87 1097.2 1502.63 1074.52 1422.62Z" fill="#A259FF"/>
<path d="M992.539 1133.51C969.852 1053.5 1016.1 970.651 1096.1 947.965L1240.66 906.977L1322.64 1196.09L1178.08 1237.07C1098.07 1259.76 1015.23 1213.52 992.539 1133.51Z" fill="#F24E1E"/>
<path d="M1240.66 906.977L1385.21 865.988C1465.22 843.302 1548.07 889.545 1570.76 969.554C1593.44 1049.56 1547.2 1132.41 1467.19 1155.1L1322.64 1196.08L1240.66 906.977Z" fill="#FF7262"/>
<path d="M1652.73 1258.66C1675.42 1338.67 1629.18 1421.52 1549.17 1444.21C1469.16 1466.89 1386.31 1420.65 1363.62 1340.64C1340.94 1260.63 1387.18 1177.78 1467.19 1155.1C1547.2 1132.41 1630.05 1178.65 1652.73 1258.66Z" fill="#1ABCFE"/>
</g>
<defs>
<clipPath id="clip0_558_48">
<rect width="894.529" height="894.529" fill="white" transform="translate(790.188 1034.71) rotate(-15.8306)"/>
</clipPath>
</defs>
</svg>
